<?xml version="1.0" encoding="UTF-8"?>
<svg width="22px" height="22px" viewBox="0 0 22 22" version="1.1" xmlns="http://www.w3.org/2000/svg" xmlns:xlink="http://www.w3.org/1999/xlink">
    <!-- Generator: Sketch 48.2 (47327) - http://www.bohemiancoding.com/sketch -->
    <title>Combined Shape</title>
    <desc>Created with Sketch.</desc>
    <defs></defs>
    <g id="Desktop" stroke="none" stroke-width="1" fill="none" fill-rule="evenodd" transform="translate(-144.000000, -752.000000)">
        <path d="M159.179682,774 L159.179682,765.480388 L162.039322,765.480388 L162.467513,762.160143 L159.179682,762.160143 L159.179682,760.040377 C159.179682,759.07909 159.446618,758.424004 160.825091,758.424004 L162.583268,758.423236 L162.583268,755.453583 C162.279198,755.41312 161.235526,755.32272 160.021295,755.32272 C157.486382,755.32272 155.750913,756.870033 155.750913,759.711554 L155.750913,762.160143 L152.883931,762.160143 L152.883931,765.480388 L155.750913,765.480388 L155.750913,774 L145.214231,774 C144.543433,774 144,773.456229 144,772.785693 L144,753.214222 C144,752.543514 144.543519,752 145.214231,752 L164.785854,752 C165.456396,752 166,752.543514 166,753.214222 L166,772.785693 C166,773.456315 165.456311,774 164.785854,774 L159.179682,774 Z" id="Combined-Shape" fill="#D7D7D7" fill-rule="nonzero"></path>
    </g>
</svg>
